# xmcd
#
# Track frame offsets:
#	150
#	10400
#	24127
#	41770
#	54157
#	69167
#	82982
#	97332
#
# Disc length: 1601 seconds
#
# Revision: 1
# Processed by: cddbd v1.5.2PL0 Copyright (c) Steve Scherf et al.
# Submitted via: audiograbber 1.83.01
#
DISCID=57063f08
DTITLE=Margo - I Will Live To Love Again
DYEAR=1998
DGENRE=Country
TTITLE0=Runaway Heart
TTITLE1=Itty Bitty Little Single Solitary Piece Of My Heart
TTITLE2=You Don't Even Wanna Know
TTITLE3=Jambalaya
TTITLE4=You've Got The Wrong Woman
TTITLE5=I Will Live To Love Again
TTITLE6=State Of Misery
TTITLE7=Ode To Bille Joe
EXTD=
EXTT0=
EXTT1=
EXTT2=
EXTT3=
EXTT4=
EXTT5=
EXTT6=
EXTT7=
PLAYORDER=
